<?xml version="1.0" encoding="UTF-8"?> <svg xmlns="http://www.w3.org/2000/svg" xmlns:xlink="http://www.w3.org/1999/xlink" viewBox="0 0 87.41 50.83"><defs><style>.cls-1{fill:#ff0a0a;}.cls-2{fill:url(#linear-gradient);}</style><linearGradient id="linear-gradient" x1="47.75" y1="30.86" x2="58.87" y2="19.74" gradientUnits="userSpaceOnUse"><stop offset="0.01" stop-color="#ff0a0a"></stop><stop offset="0.5" stop-color="#931004"></stop><stop offset="0.99" stop-color="#ff0a0a"></stop></linearGradient></defs><g id="Layer_2" data-name="Layer 2"><g id="Layer_1-2" data-name="Layer 1"><path class="cls-1" d="M77.4,21.11a.73.73,0,1,0,.72.73A.72.72,0,0,0,77.4,21.11Z"></path><path class="cls-1" d="M64.24,23.14a1.53,1.53,0,0,0-1.38.73,1.35,1.35,0,0,0-1.3-.73,1.5,1.5,0,0,0-1.27.66v-.27a.26.26,0,0,0-.26-.26h-.61a.26.26,0,0,0-.26.26v3.84a.26.26,0,0,0,.25.26h.68a.26.26,0,0,0,.25-.26V25.08a.94.94,0,0,1,.14-.52.78.78,0,0,1,.68-.34.73.73,0,0,1,.77.82v2.33a.26.26,0,0,0,.26.26h.65a.26.26,0,0,0,.26-.26V25.08a.8.8,0,0,1,.81-.86.72.72,0,0,1,.77.82v2.33a.25.25,0,0,0,.26.26h.62a.25.25,0,0,0,.26-.26V24.8A1.51,1.51,0,0,0,64.24,23.14Z"></path><path class="cls-1" d="M68.59,23.14a2.19,2.19,0,0,0-2.15,2.29,2.21,2.21,0,0,0,2.25,2.34A2,2,0,0,0,70.34,27a1.45,1.45,0,0,0,.27-.44.23.23,0,0,0-.18-.28l-.49-.15c-.19-.05-.25,0-.34.13a1,1,0,0,1-.9.46,1.06,1.06,0,0,1-1.1-1h2.91a.24.24,0,0,0,.23-.2V25.4a3.64,3.64,0,0,0,0-.48A2,2,0,0,0,68.59,23.14Zm-1,1.81a1,1,0,0,1,1-.86.88.88,0,0,1,1,.86Z"></path><path class="cls-1" d="M75.8,21.46a.26.26,0,0,0-.26-.25H74.9a.24.24,0,0,0-.26.23V23.7a1.3,1.3,0,0,0-1.23-.54,2.14,2.14,0,0,0-2.1,2.28,2.15,2.15,0,0,0,2.13,2.3,1.36,1.36,0,0,0,1.22-.61,1.58,1.58,0,0,0,0,.24c0,.19.07.26.24.26h.68c.18,0,.24-.08.23-.17s0-.54,0-.78Zm-2.22,5.22a1.1,1.1,0,0,1-1.08-1.24,1.09,1.09,0,0,1,1.08-1.22,1.08,1.08,0,0,1,1.08,1.21A1.11,1.11,0,0,1,73.58,26.68Z"></path><path class="cls-1" d="M78.71,25.44a2.14,2.14,0,0,0,2.12,2.3,1.39,1.39,0,0,0,1.23-.61v.24c0,.19.08.26.25.26H83c.18,0,.24-.08.23-.17s0-.54,0-.78c0-.79,0-2.15,0-3.17a.25.25,0,0,0-.25-.24h-.65c-.17,0-.26.09-.26.23v.2a1.3,1.3,0,0,0-1.23-.54A2.14,2.14,0,0,0,78.71,25.44Zm3.34,0a1.09,1.09,0,1,1-2.15,0,1.08,1.08,0,1,1,2.15,0Z"></path><rect class="cls-1" x="76.81" y="23.27" width="1.18" height="4.36" rx="0.26"></rect><path class="cls-1" d="M14.47,27.08c.18-.25-.12-.69.17-.86A9.36,9.36,0,0,1,15,24.34s0,0,0-.05,0,0,0,0A5.46,5.46,0,0,1,15.39,23c.11-.24.22-.85.41-1s.11-.53.16-.82c.15-.77.53-1.56.66-2.28a18.85,18.85,0,0,1,.63-1.88c.24-.56.43-1.06.63-1.64a2.75,2.75,0,0,0,.14-.3v0c.1-.15.14-.36.25-.52a5,5,0,0,1,.54-1.08s0-.06.05-.08,0-.05,0-.07h0a5.79,5.79,0,0,1,.57-.76,1.31,1.31,0,0,1,.32-.34c0-.08.06-.11.06,0s.06-.15.1-.19,0,.07,0,0,.08-.06.11-.08.06-.12.1-.14,0-.21.1-.18c.05-.24.32-.48.33-.8a1.33,1.33,0,0,0-2.34-1s0,.05-.07.05c-1.51,2.55-2.29,5.71-3.32,8.48a78.17,78.17,0,0,0-2.68,12.51c-.06,0,0,.12-.07.15s0-.15-.11-.08c-.08-.13.09-.44-.12-.47a3.28,3.28,0,0,0-.12-1.21c.07,0,0-.05,0,0s.14-.24,0-.15c-.11-.07,0-.4.05-.53-.13-.36-.16-.73-.28-1.12a2.56,2.56,0,0,0-.16-.93c-.07,0-.07-.12,0-.21-.19,0,0-.33-.13-.39-.06-.37-.1-.67-.16-1,0-.1.05-.16,0-.3s.07-.12-.08-.16.07-.11,0-.17.09-.13-.05-.1c0-.41-.2-1.13-.27-1.7-.08-.77-.31-2.11-1.39-1.68h0c-.67.31-.64,1.17-.92,1.76-.36,1.1-.72,2.31-1.1,3.31,0,0-.07.05,0,.11-.08.24-.2.58-.32.85h0c-.49.94-.7,2.69.85,1.78a6.22,6.22,0,0,0,.5-1.1c0-.05.18-.06,0-.08s.1-.15.07-.23.11-.13.07-.23.11-.08,0-.07.08,0,.08-.06.07-.18,0-.19.11-.24.13-.41,0-.07.08-.14.11,0,0-.14,0-.05.05-.12,0,0,0-.07.09,0,.14,0,0-.05,0-.05,0-.05,0-.06.11,0,.12-.12c0,0,0,0,0,0s0,0,.05,0c0-.21.14-.3.29-.1.1,0,0,.12,0,.18s.18-.18.1.1c0,.06,0,0,0,.09s-.07,0,0,.07c-.05.23.24.4.14.64,0,0,0,0,0,0a10.72,10.72,0,0,1,.21,1.74s0,.09.05.07c.21,1.17.38,2.47.54,3.58h0a4,4,0,0,0,.11.77,1.22,1.22,0,0,0,.06.35,1.27,1.27,0,0,1,0,.58c.07.14.19.23,0,.35.16,0,.17.32.18.51s.07.48.14.71c.06.39.1.73.19,1.14.14.59.12,2.1,1.27,1.67h0c.35-.15.45-.65.55-1a13.91,13.91,0,0,1,.2-1.38c0-.32.09-.66.12-1s.1-.67.11-1,.1-.92.18-1.34c0-.27.15-.51.14-.77,0-.06,0-.07.09-.05s0-.17-.05-.26a4.35,4.35,0,0,1,.12-.86h0c.05-.1.17-.17.14-.33s0-.28.07-.39,0,0-.1-.08,0-.17,0-.3a2.59,2.59,0,0,0,.14-.85.73.73,0,0,0,.12-.44,1.46,1.46,0,0,1,.13-.58A.23.23,0,0,1,14.47,27.08Z"></path><path class="cls-1" d="M18.74,21.67v-.05c-.09-.08-.08-.35-.19-.39a0,0,0,0,0,0,0c-.66-.2-1.49.6-1.56,1.28,0,0,0,.3.06.3s0,.05.06.05.18.1.15.16a0,0,0,0,1,0,0c.05,0,.11,0,.16,0h0c.08,0,.13,0,.2,0h0a0,0,0,0,0,0,0s.05,0,.08-.05.37-.25.54-.37c0,0,0,0,0,0a1.42,1.42,0,0,0,.45-.68C18.7,21.81,18.79,21.74,18.74,21.67Z"></path><path class="cls-1" d="M20.55,23.66s0,0,0,0h0a1.27,1.27,0,0,0-1,.95,3.51,3.51,0,0,0-.14.86,12,12,0,0,1-.07,1.46c0,.16-.11.35-.08.49s0,0,0,.05a10.9,10.9,0,0,0,0,1.29c0,.49-.18,1.09.15,1.5,0,0,.07,0,.06.05l.11.05a.8.8,0,0,0,.43-.07,1.65,1.65,0,0,0,1-1.83,8.77,8.77,0,0,1,.05-1s0,0,0-.06a4.65,4.65,0,0,0,0-.57h0a0,0,0,0,0,0,0s0,0,0,0h0c0-.08,0-.15,0-.22s0-.06,0-.06c.15-.05,0-.13.09-.27s0-.26.1-.29c-.07-.23.28-.6.45-.85a.06.06,0,0,1,.05,0h0a1.46,1.46,0,0,1,.21-.16h0s.09,0,.11-.09c.3-.23.66-.43.76-.81-.05,0,0-.17,0-.24s0-.07,0-.08a.9.9,0,0,1-.05-.09c-.14-.56-.58-.45-.88-.35h0a0,0,0,0,1-.05,0l0,0c-.05,0-.14,0-.19.07s-.07.06-.15.05h0c-.11,0,0,0,0,0a4.9,4.9,0,0,1-.95.24Z"></path><path class="cls-1" d="M30.72,16.94c.48,1,1.88-.35,1.69-1.05-.43-.63-1.49,0-1.67.59A.66.66,0,0,0,30.72,16.94Z"></path><path class="cls-1" d="M29.72,25.09c0,.1.13.13.17.19a1.45,1.45,0,0,0,1.5-1c0-.13,0-.55,0-.75a4.54,4.54,0,0,1,.05-.69c.07,0,.13.09.09,0-.11.05,0-.12-.09-.09,0-.12,0-.05.08,0s.07-.07,0-.09a.19.19,0,0,1-.09-.24c.05-.06-.06-.12.06-.15.11-.2,0,0,.06-.23-.08-.07,0-.11,0-.17s.08-.21,0-.17,0-.11,0-.11,0-.23,0-.27,0-.23,0-.3,0,0,0,0,0,0,0,0,0,0,0,0,0-.36,0-.38,0-.05,0-.12-.06-.06,0-.06,0,0,.05-.07-.09,0-.08,0,.09-.08.06-.16,0,0,0-.08,0-.13,0-.17,0,0,0-.06,0-.08,0-.13,0,0,0,0,0-.07,0-.11,0-.11,0-.17,0-.09,0,0,0-.09,0-.08,0,0,0,0,0-.08,0-.13c-.15-.53-1,0-1.23.36A4.21,4.21,0,0,0,30,21.05c-.08.61-.11,1.19-.19,1.92A9.37,9.37,0,0,0,29.72,25.09Z"></path><path class="cls-1" d="M42.15,21.46c-.11.05,0-.09,0-.12a2.32,2.32,0,0,1-.08-.22c-.1-.11-.15-.29-.29-.35s0,0,0,0,0-.05-.09-.08,0,0,0,0,0,0,0,0A1.78,1.78,0,0,0,40.3,21h0c-.16.1-.39.22-.51.28a4,4,0,0,1-.66.32.76.76,0,0,1-.53.11s0,0,0,0-.11-.13-.21-.15-.07-.05,0-.16-.08,0-.1-.05.1-.07.07-.16-.1,0-.08-.08.05-.06-.07-.1c0-.05,0-.25.06-.2s-.12-.05-.07-.14,0,0,0,0-.09,0,0-.05.07-.08,0-.08,0,0,0,0,.09,0,.06-.11,0-.25,0-.13c.07-.05-.11-.16,0-.2s-.16-.06-.07-.17,0,0,0-.19.13,0,0-.1-.1-.78.06-.82c-.09,0-.12-.12,0-.17,0-.05-.12-.08-.07-.19s.1,0,.12,0-.07-.3,0-.28c-.06-.16,0-.05.06-.12s0-.17,0-.23-.14.12-.09-.05,0-.3.12-.27-.1-.11,0-.2-.17-.11-.1-.25c0-1.17-1.74-.87-2.41.16a1,1,0,0,1-.74.41C33,17,32.93,19.2,33,20.75c-.05.36-.05.83-.07,1.23h0s0,.14,0,.17c-.13,1.26,0,2.32,1.42,1.2,0,0,.06,0,0,0s.12-.09.07-.19h0c.06,0,0-.09.07-.18s.06-.17.14-.16-.08-.18-.07-.29.09.16.06,0,.11-.28,0-.38.09,0,0-.14.15-.2,0-.21-.12-.56,0-.58,0,0,0-.05a.09.09,0,0,1,0-.16s0-.12,0-.1.14.06.1,0,0-.15,0-.16-.13-.12-.12-.22v-.05s.11,0,.07,0,0,0,0-.06.11,0,.07,0,.16-.12,0-.22c0-.13-.08-.25.12-.26,0,0-.06,0-.09,0s0,0,.07-.11-.12,0-.06-.09.07-.15.06,0,.12-.09,0-.09c.08-.11,0-.26.07-.39S35,19,35,18.9c.18,0,.14-.27.16-.21.35-.24.6-.86,1.11-.75.69.06.29,1.35.3,1.82h0a17.41,17.41,0,0,0,0,2.41,1.16,1.16,0,0,0,.42.48,16.72,16.72,0,0,1-1.85,1.1h0c-1.49.8-2.83,1.61-4.24,2.4-.15.12-.36.19-.5.32h0c-.76.44-1.51,1-2.22,1.37,0-.39,0-.83,0-1.17,0,0,0,0,0-.05a8.53,8.53,0,0,1,0-1.09,1.32,1.32,0,0,1,0-.42,2.43,2.43,0,0,1,.05-.59h0a2.47,2.47,0,0,1,0-.39c.05-.55.07-1.05.1-1.55,0,0,.1,0,.05-.06s0-.3,0-.31c0-.29,0-.63,0-.78s-.05-.15,0-.29c.1-.67-.48-1-1.17-.68a.84.84,0,0,0-.28.25h0s0,0,0,0a30.4,30.4,0,0,0-.47,4.12h0c-.09.6,0,1.44-.58,1.82-1.44,1.05-1.13-1.22-1-2-.15-.45.25-1.14.4-1.59.06,0,0-.17.08-.1l0-.06h0a.19.19,0,0,1,0-.07s.05-.11.06-.1.06,0,.07-.08h0c0-.07.07-.19.12-.2s.1-.08.14-.12.06-.11.08-.15,0,0,0,0,.21-.32.13-.47a.34.34,0,0,0,0-.3c-.52-.66-1.71.36-2,.93a1.24,1.24,0,0,0-.21.33,3.3,3.3,0,0,0-.36.73,4.44,4.44,0,0,0-.2.9,15,15,0,0,0-.15,2.93h0a4.1,4.1,0,0,0,.14.73,1.41,1.41,0,0,0,.33.44h0c.1.09.25.11.33.2s0,0,0,0a1.61,1.61,0,0,0,.49.07s0,0,0,0h0c.29,0,.61-.11.85-.1-.17,0,.11-.07.14-.08s.28,0,.31-.13c.19-.08.34-.26.56-.36h0c.12.18,0,.51.06.66s0,.1,0,.11,0,.16,0,.19a5.67,5.67,0,0,0-.58.42s0,0,0,0h0c-.58.35-1.09.87-1.65,1.21,0,.07-.18.13-.25.18-.39.32-.87.61-1.24.93a.56.56,0,0,0-.2.14v0c-.08.1-.27.16-.35.26-.67.52-1.32,1.1-2,1.61,0,.06-.1.06-.09.11s-.21.21-.33.21c-.1.2-.37.29-.48.48A26.89,26.89,0,0,0,14.5,39.1a1,1,0,0,0,1.4,1.08c.81-.7,1.53-1.55,2.29-2.34h0a12.69,12.69,0,0,1,1.55-1.56A11.84,11.84,0,0,1,21,35.15h0C22,34.29,23,33.44,24.08,32.6h0s.08,0,.1-.07a21.35,21.35,0,0,1,2.37-1.75c0,1.27,0,2.61,0,3.88-.05,1.46-.05,3.24-.14,4.83a4.81,4.81,0,0,0,.11.91h0c.2,1.16,1.7,1,2.07.1.1,0-.07,0-.1-.06s.07-.12.09-.16.07-.14.07-.23c0,.08-.08-.07-.11,0s0-.09,0-.13,0,0,0,0,0,0,0,0,0,0-.07,0h0c-.07-.06,0-.08.06-.1s-.09,0-.12-.1h0v0s.11.11.1,0,0,0,0-.06h0s0,0,.06,0,.09-.06,0,0c.11-.06-.12-.15-.16-.15s.09,0,.13,0-.05,0-.05-.06-.05,0-.05,0c0-.11,0-.15-.05,0s-.12-.19-.09-.25,0,0,0,0,.1,0,.11-.07h0c-.06-.09-.08,0-.11,0s.11,0,.14-.06.09-.17.05-.22-.06,0,0,0-.05,0,0,0,0-.12-.06-.2,0,0,0-.13,0-.05,0-.09,0,.11-.11,0a.13.13,0,0,1,0-.19s-.06-.22,0-.1c-.05,0,0,0,0,0a.15.15,0,0,1,0-.13c-.12,0,0,0,0-.08s0,0,0-.11c-.24,0,.1-.18-.1-.15s.21-.31,0-.22c0,0,0,0,0,0S28,37,28,36.92s-.08-.14,0-.12-.05,0,0-.08,0-.15-.05,0-.05-.14-.05-.21.18,0,.1-.06-.05-.13-.11-.18.09-.12.13-.15,0-.09,0-.11,0,0-.08,0,0-.15,0-.08,0-.08-.07-.08.11-.13,0-.23,0,0-.07-.06c.18,0,.15-.11.06-.2.16,0,0-.07,0-.14s.12,0,.12-.06,0-.07-.1,0,0,0,0-.05.1-.09,0-.09.06-.18.13-.23c-.11,0,0-.08,0-.09s0,0,0-.06,0-.08,0-.11c-.12.14,0-.06,0-.1s0-.13,0-.24,0-.17-.07-.15,0,0,0,0a1.57,1.57,0,0,0,0-.57c0-.07,0-.2,0-.27s0-.17,0-.15,0,0-.06-.07,0-.1.11-.13,0-.14-.05-.12,0-.28,0-.44a.84.84,0,0,1,0-.35c0-.07-.09-.13,0-.21s-.13-.37,0-.26,0-.07,0-.1-.05,0,0-.07.08-.22.05-.37-.06-.08,0-.18,0-.08,0-.14.13-.13.09-.2,0-.21,0-.28.12,0,0-.12c.08-.11,0-.19.1-.28s0,0,0,0,.12-.08.2-.09,0-.17.17-.18.11-.09.16-.13h0s.07-.07.11-.08a1.76,1.76,0,0,1,.3-.21l.07-.05c.18-.14.55-.32.64-.41s.43-.27.6-.39c1.93-1.22,3.89-2.33,5.86-3.36.17-.09.35-.17.52-.27a13.2,13.2,0,0,1,1.56-.75,3,3,0,0,1,.66-.28c.83-.4,2-.46,2.59-1.11a.88.88,0,0,0,.32-.44s0,0,0,0h0c0-.11.07,0,.07-.06a.19.19,0,0,1,.12-.19S42.15,21.5,42.15,21.46Z"></path><polygon class="cls-1" points="28.08 36.07 28.07 36.08 28.08 36.08 28.08 36.07"></polygon><path class="cls-1" d="M28.08,36.07l0,0S28.08,36.06,28.08,36.07Z"></path><path class="cls-1" d="M18.05,25.75c-.07,0-.18-.15-.09-.2-.1-.71-.83-.45-1.21-.12,0,0,0,0,0,0-.38.19-.51.73-.65,1.1-.05.79-.14,1.56-.14,2.35h0c0,.05,0,.12,0,.16a21.48,21.48,0,0,0-.14,2.62,1.18,1.18,0,0,0,.11.35c.45.42,1.17-.25,1.43-.54.09.18.24-.2,0-.1,0,0,0,0,0,0a2.05,2.05,0,0,0,.11-.64c0-.06.09-.22.06-.26a3.29,3.29,0,0,1,0-.54c0-.33.1-.67.11-1h0c.16-.85.13-1.73.36-2.55C18,26.14,17.77,25.84,18.05,25.75Z"></path><path class="cls-1" d="M81.83,11.28a10.34,10.34,0,0,0-6.94-2.47c-3.87,0-7.65,1.81-10.15,3.33-4.07,2.61-7.67,6.22-11.65,11.69,0,0-8.21-12.29-18.51-18.73C30.79,2.73,25,0,19,0A16,16,0,0,0,8.53,3.73C5.16,6.53,0,13.16,0,25.42S5.16,44.31,8.53,47.11A16,16,0,0,0,19,50.83c5.93,0,11.76-2.73,15.55-5.1C44.88,39.29,53.09,27,53.09,27c4,5.47,7.58,9.08,11.65,11.69C67.24,40.22,71,42,74.89,42a10.38,10.38,0,0,0,6.94-2.46c3.71-3.19,5.58-8.1,5.58-14.14S85.54,14.46,81.83,11.28ZM33.59,44.14C30,46.34,24.53,49,19,49a14.16,14.16,0,0,1-9.3-3.29C4,40.87,1.87,32.39,1.87,25.42S4,10,9.73,5.16A14.16,14.16,0,0,1,19,1.87c5.5,0,11,2.63,14.56,4.82,6.16,4,11.84,9.64,18.34,18.73C45.43,34.5,39.75,40.19,33.59,44.14Zm47-6a8.72,8.72,0,0,1-5.74,2c-3.44,0-6.88-1.66-9.16-3-3.88-2.5-7.32-5.94-11.48-11.69,4.16-5.76,7.6-9.2,11.48-11.69,2.28-1.39,5.72-3.05,9.16-3.05a8.73,8.73,0,0,1,5.74,2c3.62,3,4.91,8.27,4.91,12.7S84.25,35.1,80.63,38.12Z"></path><path class="cls-2" d="M54.25,25.42l-1.16-1.59a64.73,64.73,0,0,1,4.24-5.27h0l1.49,1.14A67.88,67.88,0,0,0,54.25,25.42Zm-6.46,5.47h0L49.33,32c2.36-2.91,3.76-5,3.76-5l-1.16-1.58Q49.82,28.39,47.79,30.89Z"></path></g></g></svg> 